<mxfile host="app.diagrams.net" modified="2023-04-03T07:26:19.293Z" agent="Mozilla/5.0 (Windows NT 10.0; Win64; x64) AppleWebKit/537.36 (KHTML, like Gecko) Chrome/111.0.0.0 Safari/537.36 Edg/111.0.1661.54" etag="RYAHEJ5r6B6QgQgQhUMm" version="21.1.2" type="github">
  <diagram name="Page-1" id="74e2e168-ea6b-b213-b513-2b3c1d86103e">
    <mxGraphModel dx="1378" dy="940" grid="1" gridSize="10" guides="1" tooltips="1" connect="1" arrows="1" fold="1" page="1" pageScale="1" pageWidth="1100" pageHeight="850" background="none" math="0" shadow="0">
      <root>
        <mxCell id="0" />
        <mxCell id="1" parent="0" />
        <mxCell id="5-Ji9P3CsPrjVuzItavN-1" value="DiscordBot" style="rounded=1;whiteSpace=wrap;html=1;fontSize=17;" vertex="1" parent="1">
          <mxGeometry x="310" y="180" width="120" height="30" as="geometry" />
        </mxCell>
        <mxCell id="5-Ji9P3CsPrjVuzItavN-5" value="Redis" style="rounded=1;whiteSpace=wrap;html=1;fontSize=17;" vertex="1" parent="1">
          <mxGeometry x="460" y="180" width="120" height="30" as="geometry" />
        </mxCell>
        <mxCell id="5-Ji9P3CsPrjVuzItavN-6" value="Goservice" style="rounded=1;whiteSpace=wrap;html=1;fontSize=17;" vertex="1" parent="1">
          <mxGeometry x="610" y="180" width="120" height="30" as="geometry" />
        </mxCell>
        <mxCell id="5-Ji9P3CsPrjVuzItavN-7" value="RabbitMQ" style="rounded=1;whiteSpace=wrap;html=1;fontSize=17;" vertex="1" parent="1">
          <mxGeometry x="750" y="180" width="120" height="30" as="geometry" />
        </mxCell>
        <mxCell id="5-Ji9P3CsPrjVuzItavN-8" value="MySQL" style="rounded=1;whiteSpace=wrap;html=1;fontSize=17;" vertex="1" parent="1">
          <mxGeometry x="890" y="180" width="120" height="30" as="geometry" />
        </mxCell>
        <mxCell id="5-Ji9P3CsPrjVuzItavN-9" value="AWSLambda" style="rounded=1;whiteSpace=wrap;html=1;fontSize=17;" vertex="1" parent="1">
          <mxGeometry x="1030" y="180" width="120" height="30" as="geometry" />
        </mxCell>
        <mxCell id="5-Ji9P3CsPrjVuzItavN-10" value="AWSSagemaker" style="rounded=1;whiteSpace=wrap;html=1;fontSize=17;" vertex="1" parent="1">
          <mxGeometry x="1170" y="180" width="150" height="30" as="geometry" />
        </mxCell>
        <mxCell id="5-Ji9P3CsPrjVuzItavN-11" value="DiscordBot" style="rounded=1;whiteSpace=wrap;html=1;fontSize=17;" vertex="1" parent="1">
          <mxGeometry x="308" y="600" width="120" height="30" as="geometry" />
        </mxCell>
        <mxCell id="5-Ji9P3CsPrjVuzItavN-12" value="Redis" style="rounded=1;whiteSpace=wrap;html=1;fontSize=17;" vertex="1" parent="1">
          <mxGeometry x="458" y="600" width="120" height="30" as="geometry" />
        </mxCell>
        <mxCell id="5-Ji9P3CsPrjVuzItavN-13" value="Goservice" style="rounded=1;whiteSpace=wrap;html=1;fontSize=17;" vertex="1" parent="1">
          <mxGeometry x="608" y="600" width="120" height="30" as="geometry" />
        </mxCell>
        <mxCell id="5-Ji9P3CsPrjVuzItavN-14" value="RabbitMQ" style="rounded=1;whiteSpace=wrap;html=1;fontSize=17;" vertex="1" parent="1">
          <mxGeometry x="748" y="600" width="120" height="30" as="geometry" />
        </mxCell>
        <mxCell id="5-Ji9P3CsPrjVuzItavN-15" value="MySQL" style="rounded=1;whiteSpace=wrap;html=1;fontSize=17;" vertex="1" parent="1">
          <mxGeometry x="888" y="600" width="120" height="30" as="geometry" />
        </mxCell>
        <mxCell id="5-Ji9P3CsPrjVuzItavN-16" value="AWSLambda" style="rounded=1;whiteSpace=wrap;html=1;fontSize=17;" vertex="1" parent="1">
          <mxGeometry x="1028" y="600" width="120" height="30" as="geometry" />
        </mxCell>
        <mxCell id="5-Ji9P3CsPrjVuzItavN-17" value="AWSSagemaker" style="rounded=1;whiteSpace=wrap;html=1;fontSize=17;" vertex="1" parent="1">
          <mxGeometry x="1168" y="600" width="150" height="30" as="geometry" />
        </mxCell>
        <mxCell id="5-Ji9P3CsPrjVuzItavN-19" value="" style="endArrow=none;dashed=1;html=1;rounded=0;entryX=0.5;entryY=1;entryDx=0;entryDy=0;exitX=0.5;exitY=0;exitDx=0;exitDy=0;" edge="1" parent="1">
          <mxGeometry width="50" height="50" relative="1" as="geometry">
            <mxPoint x="519" y="600" as="sourcePoint" />
            <mxPoint x="521" y="210" as="targetPoint" />
          </mxGeometry>
        </mxCell>
        <mxCell id="5-Ji9P3CsPrjVuzItavN-20" value="" style="endArrow=none;dashed=1;html=1;rounded=0;entryX=0.5;entryY=1;entryDx=0;entryDy=0;exitX=0.5;exitY=0;exitDx=0;exitDy=0;" edge="1" parent="1">
          <mxGeometry width="50" height="50" relative="1" as="geometry">
            <mxPoint x="669" y="600" as="sourcePoint" />
            <mxPoint x="671" y="210" as="targetPoint" />
          </mxGeometry>
        </mxCell>
        <mxCell id="5-Ji9P3CsPrjVuzItavN-21" value="" style="endArrow=none;dashed=1;html=1;rounded=0;entryX=0.5;entryY=1;entryDx=0;entryDy=0;exitX=0.5;exitY=0;exitDx=0;exitDy=0;" edge="1" parent="1" source="5-Ji9P3CsPrjVuzItavN-44">
          <mxGeometry width="50" height="50" relative="1" as="geometry">
            <mxPoint x="808" y="600" as="sourcePoint" />
            <mxPoint x="810" y="210" as="targetPoint" />
          </mxGeometry>
        </mxCell>
        <mxCell id="5-Ji9P3CsPrjVuzItavN-22" value="" style="endArrow=none;dashed=1;html=1;rounded=0;entryX=0.5;entryY=1;entryDx=0;entryDy=0;exitX=0.5;exitY=0;exitDx=0;exitDy=0;" edge="1" parent="1">
          <mxGeometry width="50" height="50" relative="1" as="geometry">
            <mxPoint x="947" y="600" as="sourcePoint" />
            <mxPoint x="949" y="210" as="targetPoint" />
          </mxGeometry>
        </mxCell>
        <mxCell id="5-Ji9P3CsPrjVuzItavN-23" value="" style="endArrow=none;dashed=1;html=1;rounded=0;entryX=0.5;entryY=1;entryDx=0;entryDy=0;exitX=0.5;exitY=0;exitDx=0;exitDy=0;" edge="1" parent="1">
          <mxGeometry width="50" height="50" relative="1" as="geometry">
            <mxPoint x="1089" y="600" as="sourcePoint" />
            <mxPoint x="1091" y="210" as="targetPoint" />
          </mxGeometry>
        </mxCell>
        <mxCell id="5-Ji9P3CsPrjVuzItavN-24" value="" style="endArrow=none;dashed=1;html=1;rounded=0;entryX=0.5;entryY=1;entryDx=0;entryDy=0;exitX=0.5;exitY=0;exitDx=0;exitDy=0;" edge="1" parent="1" source="5-Ji9P3CsPrjVuzItavN-17">
          <mxGeometry width="50" height="50" relative="1" as="geometry">
            <mxPoint x="1246" y="390" as="sourcePoint" />
            <mxPoint x="1246" y="210" as="targetPoint" />
          </mxGeometry>
        </mxCell>
        <mxCell id="5-Ji9P3CsPrjVuzItavN-26" value="DiscordUser" style="shape=umlActor;verticalLabelPosition=bottom;verticalAlign=top;html=1;outlineConnect=0;fontSize=16;" vertex="1" parent="1">
          <mxGeometry x="140" y="130" width="30" height="60" as="geometry" />
        </mxCell>
        <mxCell id="5-Ji9P3CsPrjVuzItavN-29" value="DiscordUser" style="shape=umlActor;verticalLabelPosition=bottom;verticalAlign=top;html=1;outlineConnect=0;fontSize=16;" vertex="1" parent="1">
          <mxGeometry x="140" y="600" width="30" height="60" as="geometry" />
        </mxCell>
        <mxCell id="5-Ji9P3CsPrjVuzItavN-30" value="" style="endArrow=none;dashed=1;html=1;rounded=0;entryX=0.5;entryY=1;entryDx=0;entryDy=0;exitX=0.5;exitY=0;exitDx=0;exitDy=0;" edge="1" parent="1">
          <mxGeometry width="50" height="50" relative="1" as="geometry">
            <mxPoint x="154" y="600" as="sourcePoint" />
            <mxPoint x="156" y="210" as="targetPoint" />
          </mxGeometry>
        </mxCell>
        <mxCell id="5-Ji9P3CsPrjVuzItavN-33" value="" style="endArrow=none;dashed=1;html=1;rounded=0;entryX=0.5;entryY=1;entryDx=0;entryDy=0;exitX=0.5;exitY=0;exitDx=0;exitDy=0;" edge="1" parent="1" source="5-Ji9P3CsPrjVuzItavN-36" target="5-Ji9P3CsPrjVuzItavN-1">
          <mxGeometry width="50" height="50" relative="1" as="geometry">
            <mxPoint x="368" y="600" as="sourcePoint" />
            <mxPoint x="370" y="210" as="targetPoint" />
          </mxGeometry>
        </mxCell>
        <mxCell id="5-Ji9P3CsPrjVuzItavN-35" value="用户点击About NFT 按钮" style="endArrow=classic;html=1;rounded=0;" edge="1" parent="1">
          <mxGeometry x="-0.0244" y="10" width="50" height="50" relative="1" as="geometry">
            <mxPoint x="160" y="275" as="sourcePoint" />
            <mxPoint x="365" y="275" as="targetPoint" />
            <mxPoint as="offset" />
          </mxGeometry>
        </mxCell>
        <mxCell id="5-Ji9P3CsPrjVuzItavN-38" value="" style="endArrow=none;dashed=1;html=1;rounded=0;entryX=0.5;entryY=1;entryDx=0;entryDy=0;exitX=0.5;exitY=0;exitDx=0;exitDy=0;" edge="1" parent="1" source="5-Ji9P3CsPrjVuzItavN-11" target="5-Ji9P3CsPrjVuzItavN-36">
          <mxGeometry width="50" height="50" relative="1" as="geometry">
            <mxPoint x="368" y="600" as="sourcePoint" />
            <mxPoint x="370" y="210" as="targetPoint" />
          </mxGeometry>
        </mxCell>
        <mxCell id="5-Ji9P3CsPrjVuzItavN-36" value="" style="html=1;points=[];perimeter=orthogonalPerimeter;outlineConnect=0;targetShapes=umlLifeline;portConstraint=eastwest;newEdgeStyle={&quot;edgeStyle&quot;:&quot;elbowEdgeStyle&quot;,&quot;elbow&quot;:&quot;vertical&quot;,&quot;curved&quot;:0,&quot;rounded&quot;:0};" vertex="1" parent="1">
          <mxGeometry x="365" y="258" width="10" height="162" as="geometry" />
        </mxCell>
        <mxCell id="5-Ji9P3CsPrjVuzItavN-39" value="并发锁" style="endArrow=classic;html=1;rounded=0;" edge="1" parent="1">
          <mxGeometry x="-0.0244" y="10" width="50" height="50" relative="1" as="geometry">
            <mxPoint x="375" y="320" as="sourcePoint" />
            <mxPoint x="520" y="320" as="targetPoint" />
            <mxPoint as="offset" />
          </mxGeometry>
        </mxCell>
        <mxCell id="5-Ji9P3CsPrjVuzItavN-45" value="" style="endArrow=none;dashed=1;html=1;rounded=0;entryX=0.5;entryY=1;entryDx=0;entryDy=0;exitX=0.5;exitY=0;exitDx=0;exitDy=0;" edge="1" parent="1" target="5-Ji9P3CsPrjVuzItavN-44">
          <mxGeometry width="50" height="50" relative="1" as="geometry">
            <mxPoint x="808" y="600" as="sourcePoint" />
            <mxPoint x="810" y="210" as="targetPoint" />
          </mxGeometry>
        </mxCell>
        <mxCell id="5-Ji9P3CsPrjVuzItavN-44" value="" style="html=1;points=[];perimeter=orthogonalPerimeter;outlineConnect=0;targetShapes=umlLifeline;portConstraint=eastwest;newEdgeStyle={&quot;edgeStyle&quot;:&quot;elbowEdgeStyle&quot;,&quot;elbow&quot;:&quot;vertical&quot;,&quot;curved&quot;:0,&quot;rounded&quot;:0};" vertex="1" parent="1">
          <mxGeometry x="805" y="220" width="10" height="290" as="geometry" />
        </mxCell>
        <mxCell id="5-Ji9P3CsPrjVuzItavN-46" value="返回请求结果" style="endArrow=classic;html=1;rounded=0;" edge="1" parent="1">
          <mxGeometry x="0.1724" y="-10" width="50" height="50" relative="1" as="geometry">
            <mxPoint x="815" y="510" as="sourcePoint" />
            <mxPoint x="670" y="510" as="targetPoint" />
            <mxPoint as="offset" />
          </mxGeometry>
        </mxCell>
        <mxCell id="5-Ji9P3CsPrjVuzItavN-47" value="" style="html=1;points=[];perimeter=orthogonalPerimeter;outlineConnect=0;targetShapes=umlLifeline;portConstraint=eastwest;newEdgeStyle={&quot;edgeStyle&quot;:&quot;elbowEdgeStyle&quot;,&quot;elbow&quot;:&quot;vertical&quot;,&quot;curved&quot;:0,&quot;rounded&quot;:0};" vertex="1" parent="1">
          <mxGeometry x="665" y="510" width="10" height="70" as="geometry" />
        </mxCell>
        <mxCell id="5-Ji9P3CsPrjVuzItavN-49" value="输出文本" style="endArrow=classic;html=1;rounded=0;" edge="1" parent="1" source="5-Ji9P3CsPrjVuzItavN-47">
          <mxGeometry x="-0.7426" y="-10" width="50" height="50" relative="1" as="geometry">
            <mxPoint x="305" y="580" as="sourcePoint" />
            <mxPoint x="160" y="580" as="targetPoint" />
            <mxPoint x="-1" as="offset" />
          </mxGeometry>
        </mxCell>
        <mxCell id="5-Ji9P3CsPrjVuzItavN-50" value="“DiscordUser“ -&amp;gt;&quot;DiscordBot" style="shape=umlFrame;whiteSpace=wrap;html=1;pointerEvents=0;recursiveResize=0;container=1;collapsible=0;width=160;" vertex="1" parent="1">
          <mxGeometry x="100" y="220" width="460" height="200" as="geometry" />
        </mxCell>
        <mxCell id="5-Ji9P3CsPrjVuzItavN-56" value="" style="html=1;points=[];perimeter=orthogonalPerimeter;outlineConnect=0;targetShapes=umlLifeline;portConstraint=eastwest;newEdgeStyle={&quot;edgeStyle&quot;:&quot;elbowEdgeStyle&quot;,&quot;elbow&quot;:&quot;vertical&quot;,&quot;curved&quot;:0,&quot;rounded&quot;:0};" vertex="1" parent="5-Ji9P3CsPrjVuzItavN-50">
          <mxGeometry x="415" y="38" width="10" height="162" as="geometry" />
        </mxCell>
        <mxCell id="5-Ji9P3CsPrjVuzItavN-51" value="“DiscordBot“ -&amp;gt;Redis&quot;" style="shape=umlFrame;whiteSpace=wrap;html=1;pointerEvents=0;recursiveResize=0;container=1;collapsible=0;width=220;height=20;" vertex="1" parent="1">
          <mxGeometry x="320" y="340" width="520" height="110" as="geometry" />
        </mxCell>
        <mxCell id="5-Ji9P3CsPrjVuzItavN-57" value="返回请求结果" style="endArrow=classic;html=1;rounded=0;" edge="1" parent="5-Ji9P3CsPrjVuzItavN-51">
          <mxGeometry x="-0.0714" y="9" width="50" height="50" relative="1" as="geometry">
            <mxPoint x="207" y="70" as="sourcePoint" />
            <mxPoint x="482" y="70" as="targetPoint" />
            <mxPoint x="-1" as="offset" />
          </mxGeometry>
        </mxCell>
        <mxCell id="5-Ji9P3CsPrjVuzItavN-53" value="”RabbitMQ“ -&amp;gt;&quot;GoService&quot;" style="shape=umlFrame;whiteSpace=wrap;html=1;pointerEvents=0;recursiveResize=0;container=1;collapsible=0;width=220;height=20;" vertex="1" parent="1">
          <mxGeometry x="100" y="460" width="880" height="130" as="geometry" />
        </mxCell>
      </root>
    </mxGraphModel>
  </diagram>
</mxfile>
